<?xml version="1.0" encoding="utf-8"?>
<!-- Generator: Adobe Illustrator 17.0.0, SVG Export Plug-In . SVG Version: 6.00 Build 0)  -->
<!DOCTYPE svg PUBLIC "-//W3C//DTD SVG 1.1//EN" "http://www.w3.org/Graphics/SVG/1.1/DTD/svg11.dtd">
<svg version="1.1" id="Layer_1" xmlns:sketch="http://www.bohemiancoding.com/sketch/ns"
	 xmlns="http://www.w3.org/2000/svg" xmlns:xlink="http://www.w3.org/1999/xlink" x="0px" y="0px" width="64px" height="64px"
	 viewBox="0 0 64 64" enable-background="new 0 0 64 64" xml:space="preserve">
<g>
	<g>
		<g>
			<path fill="#4A494A" d="M32,0C14.327,0,0,14.327,0,32s14.327,32,32,32s32-14.327,32-32S49.673,0,32,0z M28.464,20.702
				c-0.096-1.596-0.204-2.631-0.324-3.105c-0.12-0.474-0.246-0.801-0.378-0.98c-0.132-0.181-0.198-0.327-0.198-0.441
				c0-0.113,0.069-0.171,0.207-0.171c0.138,0,0.489,0.156,1.053,0.468c0.563,0.312,0.846,0.576,0.846,0.792
				c0,0.097-0.042,0.223-0.126,0.378c-0.144,0.276-0.216,1.003-0.216,2.179c0,1.344,0.057,3.113,0.171,5.31
				c0.114,2.196,0.171,3.366,0.171,3.51c0,0.708-0.129,1.299-0.387,1.773c-0.258,0.474-0.495,0.711-0.711,0.711
				c-0.144,0-0.282-0.126-0.414-0.378c-0.132-0.252-0.351-0.567-0.657-0.945s-0.564-0.66-0.774-0.846s-0.315-0.309-0.315-0.369
				c0-0.06,0.039-0.09,0.117-0.09s0.291,0.072,0.639,0.216c0.348,0.145,0.63,0.216,0.846,0.216c0.216,0,0.357-0.065,0.423-0.197
				c0.066-0.133,0.111-0.663,0.135-1.594c0.024-0.93,0.036-1.836,0.036-2.718S28.56,22.298,28.464,20.702z M25.494,19.478
				c0.18,0,0.423,0.085,0.729,0.253c0.306,0.168,0.459,0.359,0.459,0.575c0,0.061-0.012,0.133-0.036,0.217
				c-0.12,0.336-0.18,0.96-0.18,1.871l0.036,2.143c0,0.696-0.048,1.167-0.144,1.413s-0.201,0.369-0.315,0.369
				c-0.114,0-0.237-0.117-0.369-0.352c-0.132-0.233-0.18-0.537-0.144-0.909c0.108-0.875,0.162-1.523,0.162-1.943
				s-0.027-0.99-0.081-1.71c-0.054-0.721-0.132-1.161-0.234-1.323s-0.153-0.303-0.153-0.423S25.314,19.478,25.494,19.478z
				 M20.022,17.12c0.648,0,1.167,0.114,1.557,0.342c0.39,0.229,0.585,0.522,0.585,0.882c0,0.216-0.042,0.399-0.126,0.549
				c-0.084,0.15-0.216,0.226-0.396,0.226c-0.18,0-0.393-0.135-0.639-0.405c-0.246-0.27-0.507-0.573-0.783-0.909
				c-0.276-0.336-0.414-0.533-0.414-0.594C19.806,17.15,19.878,17.12,20.022,17.12z M16.746,29.27c0-0.048,0.09-0.126,0.27-0.233
				c0.732-0.456,1.431-1.056,2.097-1.8s1.227-1.555,1.683-2.431c-0.984-1.056-1.752-1.836-2.304-2.34
				c-0.108-0.096-0.162-0.186-0.162-0.27s0.048-0.126,0.144-0.126c0.276,0,1.164,0.647,2.664,1.943
				c0.504-1.128,0.756-2.081,0.756-2.861c0-0.132-0.006-0.264-0.018-0.396c-1.956,0.444-3.168,0.666-3.636,0.666
				c-0.468,0-0.825-0.045-1.071-0.135S16.8,21.11,16.8,21.026s0.171-0.136,0.513-0.153s0.93-0.117,1.764-0.297
				c0.834-0.18,1.497-0.342,1.989-0.486c1.26-0.384,2.136-0.576,2.628-0.576c0.228,0,0.411,0.045,0.549,0.136
				c0.138,0.09,0.207,0.183,0.207,0.278c0,0.168-0.171,0.285-0.513,0.352c-0.342,0.065-0.921,0.201-1.737,0.404
				c0.624,0.469,0.936,0.763,0.936,0.883s-0.036,0.228-0.108,0.323c-0.156,0.217-0.282,0.48-0.378,0.792
				c-0.264,0.696-0.54,1.332-0.828,1.908c0.828,0.708,1.386,1.267,1.674,1.674c0.288,0.408,0.432,0.816,0.432,1.225
				S23.82,28.1,23.604,28.1c-0.168,0-0.36-0.161-0.576-0.485c-0.444-0.66-0.996-1.38-1.656-2.16
				c-0.552,0.924-1.131,1.674-1.737,2.25s-1.176,0.993-1.71,1.251c-0.534,0.258-0.897,0.387-1.089,0.387
				C16.776,29.342,16.746,29.317,16.746,29.27z M20.958,36.569c0,0.197-0.045,0.354-0.135,0.468
				c-0.09,0.114-0.207,0.171-0.351,0.171c-0.252,0-0.606-0.288-1.062-0.864c-0.457-0.576-0.684-0.954-0.684-1.134
				c0-0.096,0.083-0.144,0.252-0.144c0.228,0,0.546,0.065,0.954,0.197c0.408,0.133,0.681,0.333,0.819,0.604
				C20.889,36.137,20.958,36.371,20.958,36.569z M17.52,38.504c0.288,0,0.687,0.123,1.197,0.369c0.51,0.246,0.765,0.573,0.765,0.98
				c0,0.205-0.039,0.382-0.117,0.531c-0.079,0.15-0.189,0.226-0.333,0.226c-0.276,0-0.627-0.3-1.053-0.9
				c-0.426-0.6-0.639-0.951-0.639-1.053S17.4,38.504,17.52,38.504z M19.158,46.352c-0.012,0.576-0.129,0.864-0.351,0.864
				c-0.222,0-0.495-0.285-0.819-0.854c-0.324-0.57-0.486-0.937-0.486-1.099s0.102-0.243,0.306-0.243c0.168,0,0.378-0.203,0.63-0.611
				s0.798-1.494,1.638-3.258c0.216-0.469,0.366-0.702,0.45-0.702c0.036,0,0.054,0.048,0.054,0.144c0,0.156-0.048,0.402-0.144,0.738
				C19.596,44.222,19.17,45.896,19.158,46.352z M30.48,44.696c-0.168,0-0.363-0.021-0.585-0.063
				c-0.222-0.042-0.675-0.062-1.359-0.062s-1.519,0.042-2.502,0.126c0.048,2.46-0.012,4.022-0.18,4.688s-0.348,0.999-0.54,0.999
				c-0.12,0-0.201-0.099-0.243-0.297s-0.051-0.885-0.027-2.061l0.054-3.24c-0.972,0.132-1.848,0.306-2.628,0.521
				c-0.205,0.061-0.436,0.091-0.693,0.091s-0.525-0.075-0.801-0.226c-0.276-0.149-0.414-0.264-0.414-0.342s0.045-0.126,0.135-0.145
				c0.09-0.018,0.282-0.026,0.576-0.026s1.575-0.168,3.843-0.504v-1.422c-0.468,0.06-0.888,0.09-1.26,0.09s-0.666-0.051-0.882-0.153
				c-0.216-0.102-0.324-0.201-0.324-0.297s0.195-0.153,0.585-0.171c0.39-0.019,1.017-0.111,1.881-0.279
				c-0.036-0.672-0.099-1.08-0.189-1.224c-0.09-0.145-0.135-0.271-0.135-0.378c0-0.181,0.096-0.271,0.288-0.271
				c0.096,0,0.309,0.052,0.639,0.153c0.33,0.102,0.495,0.273,0.495,0.513c0,0.108-0.024,0.24-0.072,0.396
				c-0.048,0.156-0.072,0.359-0.072,0.611c0.744-0.144,1.272-0.216,1.584-0.216s0.552,0.036,0.72,0.108s0.252,0.156,0.252,0.252
				c0,0.168-0.3,0.318-0.9,0.45c-0.6,0.132-1.164,0.228-1.692,0.288v1.403c1.212-0.168,2.013-0.288,2.403-0.359
				c0.39-0.072,0.783-0.108,1.179-0.108s0.75,0.09,1.062,0.271c0.312,0.18,0.468,0.359,0.468,0.539
				C31.146,44.582,30.924,44.696,30.48,44.696z M31.722,40.979c-0.853,0.175-1.41,0.262-1.674,0.262s-0.483-0.042-0.657-0.126
				c-0.174-0.084-0.69-0.414-1.548-0.99s-1.599-1.098-2.223-1.566c-0.96,0.948-1.848,1.633-2.664,2.053
				c-0.816,0.42-1.446,0.63-1.89,0.63c-0.108,0-0.162-0.027-0.162-0.081s0.114-0.147,0.342-0.279
				c1.596-0.912,2.82-1.859,3.672-2.844c-0.696-0.54-1.299-0.909-1.809-1.107c-0.51-0.197-0.765-0.342-0.765-0.432
				s0.138-0.135,0.414-0.135s0.504,0.021,0.684,0.062c0.18,0.042,0.438,0.165,0.774,0.369c0.228,0.156,0.606,0.402,1.134,0.738
				c0.324-0.408,0.639-0.87,0.945-1.386c0.306-0.517,0.459-0.84,0.459-0.973c0-0.096-0.081-0.144-0.243-0.144
				c-0.162,0-0.603,0.107-1.323,0.323c-0.72,0.217-1.197,0.324-1.431,0.324c-0.234,0-0.459-0.074-0.675-0.225
				s-0.324-0.264-0.324-0.342s0.162-0.129,0.486-0.153c0.756-0.048,1.506-0.165,2.25-0.351c0.744-0.187,1.2-0.36,1.368-0.522
				s0.351-0.243,0.549-0.243c0.198,0,0.486,0.117,0.864,0.352c0.378,0.233,0.567,0.414,0.567,0.54s-0.192,0.309-0.576,0.549
				c-0.18,0.12-0.507,0.519-0.981,1.196c-0.474,0.679-0.867,1.197-1.179,1.558c0.696,0.479,1.473,0.903,2.331,1.269
				c0.858,0.366,2.247,0.711,4.167,1.035C32.867,40.388,33,40.448,33,40.52C33,40.652,32.574,40.806,31.722,40.979z M39.3,43.562
				c-0.276,0-0.653-0.312-1.134-0.936l0.107,4.824c0,0.636-0.051,1.077-0.152,1.323c-0.102,0.245-0.195,0.368-0.279,0.368
				s-0.21-0.204-0.378-0.611c-0.168-0.408-0.252-0.754-0.252-1.035c0-0.282,0.03-0.543,0.09-0.783
				c0.12-0.492,0.228-1.962,0.324-4.41c-0.563,1.236-1.306,2.28-2.224,3.132c-0.918,0.853-1.467,1.278-1.646,1.278
				c-0.048,0-0.072-0.027-0.072-0.081s0.066-0.159,0.198-0.314c1.752-2.017,2.952-3.948,3.601-5.797
				c-0.996,0.253-1.654,0.379-1.971,0.379c-0.318,0-0.58-0.058-0.783-0.172c-0.205-0.113-0.307-0.213-0.307-0.297
				s0.234-0.149,0.702-0.197c0.937-0.145,1.8-0.324,2.592-0.54c0.024-0.804,0.036-1.506,0.036-2.106c0-1.68-0.1-2.631-0.297-2.853
				c-0.198-0.223-0.297-0.388-0.297-0.495c0-0.108,0.099-0.162,0.297-0.162c0.197,0,0.488,0.078,0.873,0.233
				c0.384,0.156,0.576,0.379,0.576,0.666c0,0.12-0.045,0.276-0.135,0.469c-0.09,0.191-0.175,0.585-0.252,1.179
				c-0.078,0.594-0.166,1.545-0.262,2.853c0.612-0.191,0.999-0.287,1.161-0.287s0.297,0.045,0.405,0.135
				c0.107,0.09,0.162,0.177,0.162,0.261c0,0.204-0.229,0.36-0.685,0.468l-1.098,0.271c-0.036,0.636-0.048,1.284-0.036,1.943
				c0.973,0.108,1.458,0.414,1.458,0.918C39.624,43.436,39.516,43.562,39.3,43.562z M48.895,41.636
				c-0.097,0.097-0.162,0.864-0.199,2.305c-0.06,2.088-0.272,3.449-0.639,4.086c-0.365,0.636-0.675,0.954-0.927,0.954
				c-0.144,0-0.288-0.127-0.432-0.379c-0.229-0.42-0.517-0.792-0.864-1.115c-0.24-0.192-0.359-0.312-0.359-0.36
				s0.045-0.072,0.135-0.072s0.252,0.027,0.486,0.081c0.233,0.055,0.452,0.081,0.656,0.081s0.375-0.107,0.514-0.324
				c0.137-0.216,0.266-0.743,0.387-1.584c0.119-0.84,0.18-1.5,0.18-1.979s-0.027-0.942-0.081-1.386
				c-0.054-0.444-0.156-0.774-0.306-0.99c-0.15-0.216-0.444-0.324-0.883-0.324c-0.438,0-1.005,0.072-1.701,0.216
				c0.385,0.288,0.576,0.504,0.576,0.648c0,0.084-0.096,0.216-0.287,0.396c-0.192,0.181-0.444,0.486-0.756,0.918
				c0.467-0.155,0.776-0.233,0.926-0.233c0.15,0,0.268,0.03,0.352,0.09c0.084,0.061,0.126,0.141,0.126,0.243
				c0,0.102-0.138,0.188-0.414,0.261l-1.655,0.414c0.228,0.288,0.33,0.672,0.306,1.152c0.743-0.204,1.229-0.307,1.458-0.307
				c0.228,0,0.423,0.048,0.585,0.145c0.161,0.096,0.243,0.204,0.243,0.323c0,0.205-0.211,0.307-0.631,0.307
				s-0.965,0.048-1.638,0.144c0.024,1.248-0.021,2.01-0.135,2.286s-0.237,0.414-0.369,0.414s-0.204-0.174-0.216-0.521l-0.055-2.034
				c-0.647,0.12-1.079,0.18-1.295,0.18c-0.217,0-0.369-0.029-0.459-0.09c-0.09-0.06-0.135-0.12-0.135-0.18
				c0-0.061,0.051-0.108,0.152-0.145s0.375-0.093,0.818-0.171c0.444-0.078,0.744-0.135,0.9-0.171
				c-0.012-0.396-0.078-0.792-0.197-1.188c-0.181,0.024-0.369,0.036-0.567,0.036s-0.345-0.029-0.44-0.09
				c-0.097-0.06-0.145-0.108-0.145-0.144c0-0.072,0.248-0.159,0.747-0.262c0.497-0.102,0.915-0.2,1.251-0.297
				c0.371-0.876,0.558-1.494,0.558-1.854c0-0.072-0.006-0.138-0.018-0.198L40.83,41.6l0.145,4.5c0,0.469-0.052,0.825-0.154,1.071
				c-0.102,0.246-0.188,0.369-0.26,0.369c-0.072,0-0.172-0.105-0.297-0.315c-0.127-0.21-0.189-0.438-0.189-0.684
				s0.033-0.546,0.099-0.9c0.065-0.354,0.099-0.815,0.099-1.386c0-0.569-0.033-1.109-0.099-1.62
				c-0.065-0.51-0.153-0.863-0.261-1.062s-0.162-0.336-0.162-0.414s0.048-0.117,0.145-0.117c0.096,0,0.275,0.054,0.539,0.162
				l2.215-0.378c0.155-0.588,0.299-1.158,0.432-1.71c-0.359,0.048-0.688,0.072-0.98,0.072c-0.295,0-0.52-0.042-0.676-0.127
				c-0.156-0.083-0.234-0.161-0.234-0.233s0.139-0.123,0.414-0.153c0.276-0.029,0.822-0.123,1.639-0.278
				c0.324-1.561,0.486-2.688,0.486-3.385c0-0.168-0.013-0.27-0.037-0.306c-0.191-0.288-0.287-0.504-0.287-0.648
				c0-0.144,0.09-0.216,0.27-0.216s0.495,0.1,0.945,0.297c0.449,0.198,0.675,0.378,0.675,0.54s-0.075,0.336-0.226,0.522
				c-0.149,0.186-0.519,1.197-1.106,3.033c0.24-0.061,0.456-0.12,0.647-0.181c0.84-0.371,1.369-0.558,1.584-0.558
				c0.217,0,0.406,0.045,0.568,0.135c0.161,0.09,0.242,0.189,0.242,0.297c0,0.312-1.092,0.679-3.275,1.099
				c-0.121,0.384-0.312,0.947-0.576,1.691l1.386-0.27c0.444-0.084,0.888-0.181,1.332-0.288c0.444-0.108,0.737-0.189,0.882-0.243
				s0.32-0.081,0.531-0.081c0.209,0,0.594,0.147,1.152,0.441c0.558,0.294,0.836,0.555,0.836,0.782
				C49.271,41.192,49.146,41.384,48.895,41.636z M41.945,41.897c0-0.174,0.055-0.262,0.162-0.262c0.156,0,0.34,0.105,0.55,0.315
				s0.315,0.453,0.315,0.729c0,0.108-0.019,0.214-0.055,0.315s-0.105,0.153-0.207,0.153s-0.255-0.165-0.459-0.495
				S41.945,42.071,41.945,41.897z"/>
		</g>
	</g>
</g>
</svg>
